<svg width="60" height="46" viewBox="0 0 60 46" fill="none" xmlns="http://www.w3.org/2000/svg">
<path d="M52.5 4.25C53.4946 4.25 54.4484 4.64509 55.1516 5.34835C55.8549 6.05161 56.25 7.00544 56.25 8V38C56.25 38.9946 55.8549 39.9484 55.1516 40.6516C54.4484 41.3549 53.4946 41.75 52.5 41.75H7.5C6.50544 41.75 5.55161 41.3549 4.84835 40.6516C4.14509 39.9484 3.75 38.9946 3.75 38V8C3.75 7.00544 4.14509 6.05161 4.84835 5.34835C5.55161 4.64509 6.50544 4.25 7.5 4.25H52.5ZM7.5 0.5C5.51088 0.5 3.60322 1.29018 2.1967 2.6967C0.790176 4.10322 0 6.01088 0 8L0 38C0 39.9891 0.790176 41.8968 2.1967 43.3033C3.60322 44.7098 5.51088 45.5 7.5 45.5H52.5C54.4891 45.5 56.3968 44.7098 57.8033 43.3033C59.2098 41.8968 60 39.9891 60 38V8C60 6.01088 59.2098 4.10322 57.8033 2.6967C56.3968 1.29018 54.4891 0.5 52.5 0.5H7.5Z" fill="white"/>
<path fill-rule="evenodd" clip-rule="evenodd" d="M34.2975 23.5475C34.4717 23.3729 34.6786 23.2343 34.9064 23.1398C35.1342 23.0453 35.3784 22.9966 35.625 22.9966C35.8716 22.9966 36.1158 23.0453 36.3436 23.1398C36.5714 23.2343 36.7783 23.3729 36.9525 23.5475L43.125 29.7237L49.2975 23.5475C49.4718 23.3732 49.6788 23.2349 49.9066 23.1405C50.1343 23.0462 50.3785 22.9976 50.625 22.9976C50.8715 22.9976 51.1157 23.0462 51.3434 23.1405C51.5712 23.2349 51.7782 23.3732 51.9525 23.5475C52.1268 23.7218 52.2651 23.9288 52.3595 24.1566C52.4538 24.3843 52.5024 24.6285 52.5024 24.875C52.5024 25.1215 52.4538 25.3657 52.3595 25.5934C52.2651 25.8212 52.1268 26.0282 51.9525 26.2025L44.4525 33.7025C44.2783 33.8771 44.0714 34.0156 43.8436 34.1102C43.6158 34.2047 43.3716 34.2533 43.125 34.2533C42.8784 34.2533 42.6342 34.2047 42.4064 34.1102C42.1786 34.0156 41.9717 33.8771 41.7975 33.7025L34.2975 26.2025C34.1229 26.0283 33.9843 25.8214 33.8898 25.5936C33.7953 25.3658 33.7466 25.1216 33.7466 24.875C33.7466 24.6284 33.7953 24.3842 33.8898 24.1564C33.9843 23.9286 34.1229 23.7217 34.2975 23.5475Z" fill="white"/>
<path fill-rule="evenodd" clip-rule="evenodd" d="M43.125 11.75C43.6223 11.75 44.0992 11.9475 44.4508 12.2992C44.8025 12.6508 45 13.1277 45 13.625V28.625C45 29.1223 44.8025 29.5992 44.4508 29.9508C44.0992 30.3025 43.6223 30.5 43.125 30.5C42.6277 30.5 42.1508 30.3025 41.7992 29.9508C41.4475 29.5992 41.25 29.1223 41.25 28.625V13.625C41.25 13.1277 41.4475 12.6508 41.7992 12.2992C42.1508 11.9475 42.6277 11.75 43.125 11.75Z" fill="white"/>
<path d="M13.35 34.25V19.2875H13.56L18.915 31.4338H21.8175L27.1425 19.2838H27.3525V34.25H31.3762V11.7538H26.8763L20.4637 26.3563H20.3175L13.905 11.7538H9.375V34.25H13.35Z" fill="white"/>
</svg>
